<svg xmlns="http://www.w3.org/2000/svg" viewBox="0 0 920 800"><defs><style>.cls-1{fill:#74bf44;}.cls-2{fill:#fdea32;}.cls-3{fill:#e8356d;}.cls-4{fill:#ed6c2b;}.cls-5{fill:#87d1e6;}.cls-6{fill:#76bc21;}.cls-7{fill:none;}.cls-8{fill:#7f3f97;}</style></defs><title>2Artboard 1</title><g id="NEW_CUBE" data-name="NEW CUBE"><path class="cls-1" d="M901.76,588c0,39.44-157.07,188.61-199.85,188.61H90.38c-42.78,0-77.62-25.66-77.62-65.1V244.2c0-39.44,186.42-220.62,229.2-220.62H819.8c42.78,0,82,29.61,82,69.05Z"/><path class="cls-2" d="M911.05,576.82c0,37.88-30.39,68.58-67.88,68.58H232.28c-37.49,0-67.88-30.7-67.88-68.58V79.61C164.4,41.73,194.79,11,232.28,11H843.17c37.49,0,67.88,30.7,67.88,68.58Z"/><path class="cls-3" d="M158.79,616.63c.09,29.6.56,29.37-31.95,56.27L57.13,733.25C19.24,767.63,8,776,8.71,741.61V258.53C9.41,224.1.91,184.08,35.5,147.6L97.25,81.84c34.6-36.48,62.08-38.15,61.38-3.72Z"/><path class="cls-4" d="M190.76,651.27c-29.42-.83-35.39,3-58.54,24.44l-80.7,69.47C9.41,781,23.22,781,63.86,781h570.8c81.4,0,101.75,3.51,133.63-18l78.4-56.08c43.52-31.42,45.56-55.16,4.92-55.08Z"/></g><g id="Layer_1" data-name="Layer 1"><rect class="cls-5" x="222.46" y="235.97" width="47.38" height="201.27"/><rect class="cls-5" x="729" y="235.97" width="47.37" height="201.27"/><rect class="cls-6" x="222.46" y="395.89" width="47.38" height="46.74"/><polygon class="cls-6" points="269.84 313.24 222.46 313.24 222.46 359.98 269.84 359.98 324.02 359.98 324.02 313.24 269.84 313.24"/><polygon class="cls-6" points="364.64 277.34 364.64 230.59 317.24 230.59 269.84 230.59 222.46 230.59 222.46 277.34 269.84 277.34 317.24 277.34 364.64 277.34"/><path class="cls-6" d="M488,375.09c0,17.63-9.76,26.94-28.21,26.94s-28.53-9.57-28.53-26.94V230.63h-53V376.94c0,41.61,32.3,69.55,80.35,69.55,48.46,0,79.74-27.28,79.74-69.55V230.63H488Z"/><path class="cls-6" d="M555,366.36v16.07c0,41.23,29.83,65.86,79.77,65.86,52.42,0,75.86-34,75.86-67.7,0-39.66-35.61-52.94-64.24-63.64-20.08-7.5-37.45-14-37.45-27,0-12.61,9.2-20.14,24.62-20.14,17.68,0,28.23,9.5,28.23,25.4v1.47L710,307.22V291.16c0-38.45-30.74-64.3-76.49-64.3-44.31,0-75.27,26.84-75.27,65.23,0,39.5,35,53,63.17,63.75,20.34,7.83,37.92,14.58,37.92,28.43s-8.48,21.07-25.21,21.07c-11.54,0-30.9-3.51-30.9-26.91"/><rect class="cls-7" x="222.46" y="226.86" width="648.71" height="221.43"/><rect class="cls-6" x="728.83" y="397.73" width="142.17" height="46.74"/><polygon class="cls-6" points="775.81 317.05 728.43 317.05 728.43 363.79 775.81 363.79 829.98 363.79 829.98 317.05 775.81 317.05"/><polygon class="cls-6" points="871 281.13 871 234.39 823.61 234.39 776.21 234.39 728.83 234.39 728.83 281.13 776.21 281.13 823.61 281.13 871 281.13"/><path class="cls-8" d="M246.89,505.46a6.37,6.37,0,0,0-1.24,3.79v4.18h8.1a4.92,4.92,0,0,1,3.56,1.38,5.06,5.06,0,0,1,0,7,4.92,4.92,0,0,1-3.56,1.38h-8.1v31.5a5.35,5.35,0,0,1-1.52,3.88,5.49,5.49,0,0,1-7.65,0,5.34,5.34,0,0,1-1.51-3.88v-31.5h-4.81a4.92,4.92,0,0,1-3.56-1.38,5.06,5.06,0,0,1,0-7,4.92,4.92,0,0,1,3.56-1.38H235v-4.1a14,14,0,0,1,4.58-10.85q4.59-4.19,13.22-4.19a11.84,11.84,0,0,1,5.74,1.34,4.36,4.36,0,0,1,2.44,4.09,4.87,4.87,0,0,1-1.24,3.47,4,4,0,0,1-3,1.34,5,5,0,0,1-.93-.09l-1-.18a15.46,15.46,0,0,0-3.56-.53C249.15,503.73,247.72,504.31,246.89,505.46Z"/><path class="cls-8" d="M306.79,514.1A5.3,5.3,0,0,1,308.3,518v22.6q0,9.61-5.29,15T287.92,561q-9.8,0-15-5.43t-5.25-15V518a5.3,5.3,0,0,1,1.51-3.87,5.48,5.48,0,0,1,7.66,0,5.34,5.34,0,0,1,1.51,3.87v22.6q0,5.43,2.4,8.06c1.6,1.75,4,2.62,7.21,2.62s5.7-.87,7.3-2.62,2.4-4.44,2.4-8.06V518a5.34,5.34,0,0,1,1.51-3.87,5.48,5.48,0,0,1,7.66,0Z"/><path class="cls-8" d="M318.54,550.1a4.67,4.67,0,0,1,2.31-3.92,4.74,4.74,0,0,1,2.58-.8,5,5,0,0,1,3.56,1.69,18.71,18.71,0,0,0,5.56,4.09,16.6,16.6,0,0,0,7,1.34q6.94-.27,6.94-5.25a4.27,4.27,0,0,0-2.36-3.92,33.26,33.26,0,0,0-7.34-2.67,63.89,63.89,0,0,1-8.41-2.85,14.71,14.71,0,0,1-5.61-4.31,12,12,0,0,1-2.35-7.79,11.79,11.79,0,0,1,2.44-7.43,16.11,16.11,0,0,1,6.41-4.9,20.82,20.82,0,0,1,8.41-1.73,25.8,25.8,0,0,1,9.08,1.69,15.87,15.87,0,0,1,7.12,5,5,5,0,0,1,1.16,3.21,4.14,4.14,0,0,1-1.7,3.38,4.47,4.47,0,0,1-2.84,1,4.35,4.35,0,0,1-3.21-1.25,11.28,11.28,0,0,0-4.14-3.11,13.69,13.69,0,0,0-5.74-1.16q-6.76,0-6.76,4.9a4.14,4.14,0,0,0,1.25,3.15,8.3,8.3,0,0,0,3.16,1.87c1.27.45,3.07,1,5.38,1.65a59.14,59.14,0,0,1,8,2.76,13.69,13.69,0,0,1,5.43,4.36,12.52,12.52,0,0,1,2.22,7.74,11.86,11.86,0,0,1-2.58,7.61,16.23,16.23,0,0,1-6.63,4.94,21.34,21.34,0,0,1-8.32,1.69,30.11,30.11,0,0,1-10.95-2,18.15,18.15,0,0,1-8.27-6.31A4.32,4.32,0,0,1,318.54,550.1Z"/><path class="cls-8" d="M408.25,538.7a5.68,5.68,0,0,1-3.74,1.34H375.14a13.41,13.41,0,0,0,4.89,8.23,13.67,13.67,0,0,0,8.64,3,19.28,19.28,0,0,0,5.69-.66,14.66,14.66,0,0,0,3.25-1.43l1.65-1a6.69,6.69,0,0,1,3-.8,4.37,4.37,0,0,1,3.21,1.33,4.27,4.27,0,0,1,1.33,3.12,5.56,5.56,0,0,1-2.49,4.36,21.43,21.43,0,0,1-6.67,3.47,27.66,27.66,0,0,1-21.5-1.69,21.77,21.77,0,0,1-8.59-8.59,25.13,25.13,0,0,1-3-12.33,27.37,27.37,0,0,1,3.2-13.44,22.84,22.84,0,0,1,8.46-8.85,21.82,21.82,0,0,1,11.21-3.07,20.82,20.82,0,0,1,11.08,3.2,24,24,0,0,1,8.32,8.64,23.16,23.16,0,0,1,3.12,11.74A4.59,4.59,0,0,1,408.25,538.7Zm-33-7.56h23.32v-.62a9.22,9.22,0,0,0-3.65-6.41,11.57,11.57,0,0,0-7.48-2.67Q377.1,521.44,375.23,531.14Z"/><path class="cls-8" d="M417.5,550.1a4.66,4.66,0,0,1,2.32-3.92,4.74,4.74,0,0,1,2.58-.8,5,5,0,0,1,3.56,1.69,18.71,18.71,0,0,0,5.56,4.09,16.6,16.6,0,0,0,7,1.34q6.93-.27,6.94-5.25a4.27,4.27,0,0,0-2.36-3.92,33.26,33.26,0,0,0-7.34-2.67,63.39,63.39,0,0,1-8.41-2.85,14.71,14.71,0,0,1-5.61-4.31,12,12,0,0,1-2.36-7.79,11.79,11.79,0,0,1,2.45-7.43,16.11,16.11,0,0,1,6.41-4.9,20.82,20.82,0,0,1,8.41-1.73,25.84,25.84,0,0,1,9.08,1.69,15.84,15.84,0,0,1,7.11,5,4.92,4.92,0,0,1,1.16,3.21,4.13,4.13,0,0,1-1.69,3.38,4.5,4.5,0,0,1-2.85,1,4.34,4.34,0,0,1-3.2-1.25,11.37,11.37,0,0,0-4.14-3.11,13.69,13.69,0,0,0-5.74-1.16q-6.76,0-6.76,4.9a4.17,4.17,0,0,0,1.24,3.15,8.3,8.3,0,0,0,3.16,1.87c1.28.45,3.07,1,5.39,1.65a59.14,59.14,0,0,1,8,2.76,13.73,13.73,0,0,1,5.42,4.36,12.46,12.46,0,0,1,2.23,7.74,11.86,11.86,0,0,1-2.58,7.61,16.23,16.23,0,0,1-6.63,4.94,21.38,21.38,0,0,1-8.32,1.69,30,30,0,0,1-10.95-2,18.23,18.23,0,0,1-8.28-6.31A4.38,4.38,0,0,1,417.5,550.1Z"/><path class="cls-8" d="M491.42,551.3a4.71,4.71,0,0,1,1,3.16q0,2.4-2.63,4a10.87,10.87,0,0,1-5.91,1.64,17.18,17.18,0,0,1-9.3-2.36q-3.8-2.35-3.79-10V523.22h-4.09a4.89,4.89,0,0,1-5-5,4.57,4.57,0,0,1,1.43-3.42,4.9,4.9,0,0,1,3.56-1.38h4.09v-5.7a5.33,5.33,0,0,1,5.43-5.43,5,5,0,0,1,3.74,1.56,5.33,5.33,0,0,1,1.51,3.87v5.7h6.32a4.87,4.87,0,0,1,5,5,4.58,4.58,0,0,1-1.43,3.43,4.9,4.9,0,0,1-3.56,1.38h-6.32v24.12a3.41,3.41,0,0,0,1,2.71,3.91,3.91,0,0,0,2.67.85,7.53,7.53,0,0,0,2-.36,5.41,5.41,0,0,1,2-.44A3,3,0,0,1,491.42,551.3Z"/><path class="cls-8" d="M541.75,514.1a5.34,5.34,0,0,1,1.51,3.87v22.6q0,9.61-5.3,15T522.88,561q-9.79,0-15-5.43t-5.25-15V518a5.3,5.3,0,0,1,1.51-3.87,5.47,5.47,0,0,1,7.65,0,5.31,5.31,0,0,1,1.52,3.87v22.6q0,5.43,2.4,8.06t7.21,2.62q4.89,0,7.3-2.62t2.4-8.06V518a5.3,5.3,0,0,1,1.51-3.87,5.48,5.48,0,0,1,7.66,0Z"/><path class="cls-8" d="M597.19,495.81a5.28,5.28,0,0,1,1.51,3.91v55a5.34,5.34,0,0,1-1.51,3.88,5.13,5.13,0,0,1-3.83,1.55,5,5,0,0,1-3.78-1.51,5.59,5.59,0,0,1-1.56-3.83,19.22,19.22,0,0,1-14,6.23,20.3,20.3,0,0,1-11.12-3.16,22,22,0,0,1-7.88-8.76,27.34,27.34,0,0,1-2.89-12.73A28,28,0,0,1,555,523.62a21.83,21.83,0,0,1,7.78-8.81,19.82,19.82,0,0,1,10.91-3.16A21.32,21.32,0,0,1,588,517.17V499.72a5.34,5.34,0,0,1,1.52-3.87,5.1,5.1,0,0,1,3.82-1.56A5.18,5.18,0,0,1,597.19,495.81ZM584.82,547a15.73,15.73,0,0,0,3.65-10.64,15.89,15.89,0,0,0-3.65-10.68,12.46,12.46,0,0,0-18.78,0A17.47,17.47,0,0,0,566,547a11.76,11.76,0,0,0,9.39,4.22A11.9,11.9,0,0,0,584.82,547Z"/><path class="cls-8" d="M612.85,505.77c-.83-.65-1.24-1.81-1.24-3.47v-1.69a4,4,0,0,1,1.33-3.47,7.36,7.36,0,0,1,4.28-1c2.07,0,3.52.33,4.36,1s1.24,1.81,1.24,3.47v1.69c0,1.73-.43,2.9-1.29,3.52a7.8,7.8,0,0,1-4.4.93C615.11,506.75,613.69,506.43,612.85,505.77ZM621,558.6a5.49,5.49,0,0,1-7.65,0,5.34,5.34,0,0,1-1.51-3.88V518a5.3,5.3,0,0,1,1.51-3.87,5.47,5.47,0,0,1,7.65,0,5.31,5.31,0,0,1,1.52,3.87v36.75A5.35,5.35,0,0,1,621,558.6Z"/><path class="cls-8" d="M678.27,549.16a22.68,22.68,0,0,1-8.77,8.77,25.72,25.72,0,0,1-24.52,0,22.75,22.75,0,0,1-8.72-8.77,27.08,27.08,0,0,1,0-25.54,23.06,23.06,0,0,1,8.72-8.81,25.36,25.36,0,0,1,24.52,0,23,23,0,0,1,8.77,8.81,27.08,27.08,0,0,1,0,25.54ZM669,528.6a13.41,13.41,0,0,0-4.9-5.29,13.32,13.32,0,0,0-13.61,0,13.41,13.41,0,0,0-4.9,5.29,16.29,16.29,0,0,0-1.82,7.79,16,16,0,0,0,1.82,7.74,13.44,13.44,0,0,0,4.9,5.25,13.32,13.32,0,0,0,13.61,0,13.44,13.44,0,0,0,4.9-5.25,16.09,16.09,0,0,0,1.82-7.74A16.4,16.4,0,0,0,669,528.6Z"/><path class="cls-8" d="M693.35,558.68a5.33,5.33,0,0,1-1.38-4v-1.51a4.82,4.82,0,0,1,5.34-5.34h1.16a4.82,4.82,0,0,1,5.34,5.34v1.51a4.82,4.82,0,0,1-5.34,5.34h-1.16A5.32,5.32,0,0,1,693.35,558.68Z"/><path class="cls-8" d="M755,517q3.46,5.38,3.47,14.91v22.78a5.35,5.35,0,0,1-1.52,3.88,5.49,5.49,0,0,1-7.65,0,5.34,5.34,0,0,1-1.51-3.88V531.94a12.87,12.87,0,0,0-2-7.7q-2.06-2.81-7-2.8a10.85,10.85,0,0,0-8.1,3,10.27,10.27,0,0,0-2.94,7.52v22.78a5.34,5.34,0,0,1-1.51,3.88,5.49,5.49,0,0,1-7.65,0,5.35,5.35,0,0,1-1.52-3.88V518a5.31,5.31,0,0,1,1.52-3.87,5.47,5.47,0,0,1,7.65,0,5.3,5.3,0,0,1,1.51,3.87v1.51a21.69,21.69,0,0,1,6.28-5.52,16.27,16.27,0,0,1,8.5-2.31Q751.52,511.65,755,517Z"/><path class="cls-8" d="M813.28,538.7a5.66,5.66,0,0,1-3.74,1.34H780.17a13.43,13.43,0,0,0,4.9,8.23,13.67,13.67,0,0,0,8.63,3,19.41,19.41,0,0,0,5.7-.66,15.1,15.1,0,0,0,3.25-1.43l1.64-1a6.73,6.73,0,0,1,3-.8,4.37,4.37,0,0,1,3.2,1.33,4.28,4.28,0,0,1,1.34,3.12,5.58,5.58,0,0,1-2.5,4.36,21.31,21.31,0,0,1-6.67,3.47,27.64,27.64,0,0,1-21.49-1.69,21.71,21.71,0,0,1-8.59-8.59,25,25,0,0,1-3-12.33,27.27,27.27,0,0,1,3.21-13.44,22.75,22.75,0,0,1,8.45-8.85,21.82,21.82,0,0,1,11.21-3.07,20.82,20.82,0,0,1,11.08,3.2,24,24,0,0,1,8.33,8.64A23.25,23.25,0,0,1,815,535.23,4.55,4.55,0,0,1,813.28,538.7Zm-33-7.56h23.32v-.62a9.22,9.22,0,0,0-3.65-6.41,11.57,11.57,0,0,0-7.48-2.67Q782.13,521.44,780.26,531.14Z"/><path class="cls-8" d="M851.33,551.3a4.71,4.71,0,0,1,1,3.16q0,2.4-2.63,4a10.87,10.87,0,0,1-5.91,1.64,17.18,17.18,0,0,1-9.3-2.36q-3.79-2.35-3.79-10V523.22h-4.09a4.87,4.87,0,0,1-5-5,4.57,4.57,0,0,1,1.42-3.42,4.9,4.9,0,0,1,3.56-1.38h4.09v-5.7a5.33,5.33,0,0,1,5.43-5.43,5,5,0,0,1,3.74,1.56,5.33,5.33,0,0,1,1.51,3.87v5.7h6.32a4.87,4.87,0,0,1,5,5,4.58,4.58,0,0,1-1.43,3.43,4.9,4.9,0,0,1-3.56,1.38H841.4v24.12a3.41,3.41,0,0,0,1,2.71,3.91,3.91,0,0,0,2.67.85,7.53,7.53,0,0,0,2-.36,5.41,5.41,0,0,1,2-.44A3,3,0,0,1,851.33,551.3Z"/></g></svg>