<svg xmlns="http://www.w3.org/2000/svg" viewBox="0 0 160 103"><style>.a{fill:#FFF;}</style><path d="M143.1 103.2H16.4c-9.4 0-17.1-7.7-17.1-17.1V17C-0.7 7.6 7-0.1 16.4-0.1l126.7 0c9.4 0 17.1 7.7 17.1 17.1v69.1C160.1 95.5 152.5 103.2 143.1 103.2zM16.4 8.9c-2.1 0-4.2 0.8-5.7 2.4 -1.5 1.5-2.4 3.5-2.4 5.7v69.1c0 4.4 3.6 8.1 8.1 8.1h126.7c4.4 0 8.1-3.6 8.1-8.1V17c0-4.4-3.6-8.1-8.1-8.1H16.4C16.4 8.9 16.4 8.9 16.4 8.9z" class="a"/><path d="M69.3 81.5c-0.6 0-1.3-0.2-1.8-0.7L51.2 64.6h-8c-1.4 0-2.5-1.1-2.5-2.5V44.3c0-1.4 1.1-2.5 2.5-2.5h8l16.4-16.3c0.7-0.7 1.8-0.9 2.7-0.5 0.9 0.4 1.5 1.3 1.5 2.3V79c0 1-0.6 1.9-1.5 2.3C70 81.5 69.6 81.5 69.3 81.5z" class="a"/><path d="M85.6 32c1.7 1.6 3.1 3.5 4.2 5.6 1.1 2.1 2 4.4 2.6 6.8 0.6 2.4 0.9 4.8 0.8 7.3 0 2.5-0.3 4.9-0.9 7.3 -0.6 2.4-1.4 4.6-2.6 6.6 -1.2 2.1-2.6 3.8-4.4 5.4 -0.7 0.6-1.4 0.8-2 0.6 -0.7-0.2-1.2-0.5-1.6-1.1S81 69.3 81 68.6c0-0.7 0.3-1.3 1-1.9 1.3-0.9 2.3-2.2 3.2-3.8 0.9-1.6 1.5-3.4 1.9-5.3s0.6-3.9 0.6-6c0-2.1-0.2-4.1-0.6-6.1 -0.4-2-1.1-3.8-1.9-5.5 -0.8-1.7-1.9-3-3.2-4.1 -0.6-0.6-0.9-1.2-0.9-1.9 0.1-0.7 0.3-1.3 0.8-1.8 0.4-0.5 1-0.8 1.7-1C84.3 31.1 85 31.4 85.6 32z" class="a"/><path d="M94.8 23.7c2.4 2.4 4.5 5.1 6.1 8.2 1.6 3.1 2.9 6.4 3.7 9.8 0.8 3.4 1.2 6.9 1.2 10.5 0 3.6-0.4 7-1.3 10.3 -0.8 3.3-2.1 6.4-3.8 9.4s-3.8 5.4-6.3 7.6c-0.6 0.6-1.3 0.8-2 0.6 -0.7-0.2-1.3-0.5-1.7-1 -0.4-0.5-0.6-1.1-0.6-1.9s0.4-1.3 1.1-1.9c2-1.6 3.7-3.6 5.1-6.1 1.4-2.5 2.4-5.1 3.1-8 0.7-2.9 1-5.9 1-9.1 0-3.2-0.3-6.2-1-9.2 -0.7-3-1.7-5.8-3.1-8.5 -1.4-2.7-3.1-5-5.2-6.9 -0.6-0.6-0.9-1.2-0.9-1.9 0.1-0.7 0.3-1.3 0.8-1.8s1-0.8 1.7-0.9C93.5 22.9 94.2 23.1 94.8 23.7z" class="a"/><path d="M104 15.8c3.2 3.1 5.8 6.6 8 10.6s3.7 8.2 4.8 12.6c1.1 4.4 1.6 8.9 1.6 13.5s-0.5 9-1.6 13.3c-1.1 4.3-2.7 8.3-4.9 12 -2.2 3.7-4.9 7-8.1 9.7 -0.6 0.6-1.3 0.7-2 0.6 -0.7-0.2-1.2-0.5-1.7-1.1 -0.4-0.5-0.7-1.2-0.7-1.9 0-0.7 0.3-1.3 0.9-1.9 2.8-2.2 5.1-4.9 6.9-8.2 1.9-3.3 3.3-6.8 4.2-10.7 0.9-3.9 1.4-7.9 1.4-12s-0.5-8.2-1.4-12.2c-0.9-4-2.3-7.7-4.2-11.3 -1.9-3.5-4.2-6.6-7-9.2 -0.6-0.6-0.9-1.2-0.9-1.9 0.1-0.7 0.3-1.3 0.8-1.8s1-0.8 1.7-0.9C102.6 15 103.3 15.2 104 15.8z" class="a"/></svg>
