<svg id="Layer_1" data-name="Layer 1" xmlns="http://www.w3.org/2000/svg" viewBox="0 0 555 555"><defs><style>.cls-1{fill:#f2f2f2;}.cls-2,.cls-3{fill:#ededf4;}.cls-2,.cls-5{stroke:#b7b6b6;stroke-width:0.25px;}.cls-12,.cls-14,.cls-2,.cls-5{stroke-miterlimit:10;}.cls-4,.cls-5{opacity:0.1;isolation:isolate;}.cls-6{fill:#e8a6bb;}.cls-7{fill:#a0616a;}.cls-8{fill:#2f2e41;}.cls-9{fill:#575a89;}.cls-10{fill:#ffb8b8;}.cls-11{fill:#d0cde1;}.cls-12{fill:#e46632;stroke:#666;}.cls-13{fill:#297f9e;}.cls-14{fill:none;stroke:#3f3d56;}</style></defs><title>2Artboard 2 copy 2</title><ellipse class="cls-1" cx="281.6" cy="457.79" rx="224.4" ry="30.06"/><polyline class="cls-2" points="114.66 269.06 410.98 139.66 411.77 139.31 274.15 77.03 256.66 79.64 220.57 85.03 141.08 96.91 140.79 96.95 114.76 268.37"/><polygon class="cls-2" points="393.91 132.06 384.78 135.52 371.32 128.98 380.38 125.94 393.91 132.06"/><polygon class="cls-3" points="249.14 84.14 249.44 84.1 252.77 86.15 250.5 86.52 246.47 87.17 246.47 87.17 243.38 85.03 248.11 84.31 249.14 84.14"/><polygon class="cls-3" points="246.31 87.97 249.24 90 250.72 91.03 249.24 91.32 248.14 91.54 245.21 92.12 240.96 88.84 245.98 88.03 245.98 88.03 246.31 87.97"/><polygon class="cls-3" points="250.93 87.23 250.93 87.23 253.79 86.76 258.27 89.53 251.76 90.83 250.32 89.84 247.39 87.81 250.93 87.23"/><polygon class="cls-2" points="263.6 85.18 269.27 84.26 273.5 86.48 267.41 87.69 265.13 86.4 263.12 85.24 263.6 85.18"/><polygon class="cls-3" points="268.96 89.47 268.96 89.47 271.57 90.96 270.97 91.08 264.4 92.39 260.32 89.88 267.26 88.5 268.96 89.47"/><polygon class="cls-3" points="250.19 96.01 256.18 94.82 257.06 95.44 257.06 95.44 257.27 95.57 258.55 96.46 252.46 97.77 250.75 96.42 250.62 96.32 250.19 96.01"/><polygon class="cls-3" points="257.22 94.61 264.25 93.21 265.91 94.23 266.22 94.42 266.7 94.71 259.61 96.25 258.43 95.43 258.43 95.43 258.22 95.28 257.22 94.61"/><polygon class="cls-2" points="234.68 137.09 220.9 140.72 216.91 133.66 229.93 130.51 234.68 137.09"/><polygon class="cls-2" points="229.57 129.83 216.61 132.97 213.28 127.08 225.27 124.25 225.52 124.19 228.7 128.62 228.7 128.66 229.57 129.83"/><polygon class="cls-3" points="271.31 105.27 272.58 106.16 269.43 106.84 265.7 107.64 265.3 107.73 264.29 106.94 263.11 106.03 258.13 102.15 264.64 100.66 269.3 103.89 269.3 103.89 271.31 105.27"/><polygon class="cls-3" points="248.4 104.39 249.25 104.19 257.2 102.38 262.14 106.21 263.31 107.12 264.37 107.94 255.01 109.96 253.69 108.85 252.79 108.1 248.92 104.84 248.4 104.39"/><polygon class="cls-3" points="265.15 108.55 266 109.21 266.3 109.44 270.55 112.73 260.96 115 255.73 110.57 265.15 108.55"/><polygon class="cls-3" points="254.07 110.12 251.04 110.77 250.98 110.77 235.1 114.2 234.44 114.35 229.58 108.61 234.93 107.4 247.42 104.55 254.07 110.12"/><polygon class="cls-3" points="235.13 115.04 250.39 111.71 250.39 111.71 251.7 111.43 254.8 110.76 260.06 115.19 256.54 116.02 255.25 116.33 239.29 120.11 235.13 115.2 235 115.05 235.13 115.04"/><polygon class="cls-3" points="243.62 126.4 235.48 128.37 230.27 129.63 226.22 124 235.3 121.85 239.01 120.97 243.62 126.4"/><polygon class="cls-3" points="235.5 129.17 244.18 127.07 249.39 133.22 235.7 136.83 235.47 136.89 230.75 130.32 235.5 129.17"/><polygon class="cls-3" points="239.85 120.79 255.91 116.99 257.2 116.69 260.78 115.84 266.69 120.83 264.12 121.45 259.13 122.65 259.13 122.65 244.43 126.22 239.85 120.79"/><polygon class="cls-2" points="261.71 115.62 271.32 113.35 273.34 114.92 277.56 118.19 273.34 119.21 267.62 120.6 261.71 115.62"/><polygon class="cls-2" points="273.34 113.96 272.27 113.13 273.34 112.87 279.99 111.31 286.74 115.97 278.53 117.96 273.34 113.96"/><polygon class="cls-2" points="273.34 112.18 271.5 112.61 266.9 109.05 266.1 108.44 268.14 108 273.32 106.89 273.42 106.89 279.11 110.84 273.34 112.18"/><polygon class="cls-3" points="257.38 101.56 253.26 98.38 259.42 97.06 263.79 100.09 257.38 101.56"/><polygon class="cls-3" points="256.41 101.78 249.25 103.42 248.14 103.67 247.66 103.78 243.72 100.45 248.15 99.5 249.26 99.26 252.32 98.6 256.41 101.78"/><polygon class="cls-3" points="246.73 104 234.88 106.69 229 108.03 225.82 104.29 234.75 102.37 242.74 100.65 246.73 104"/><polygon class="cls-2" points="228.19 108.22 221.45 109.76 216.76 110.83 213.93 106.88 221.29 105.3 224.99 104.47 228.19 108.22"/><polygon class="cls-2" points="221.48 110.54 228.74 108.88 233.57 114.59 221.68 117.17 221.35 117.24 217.22 111.49 221.48 110.54"/><polygon class="cls-3" points="234.13 115.25 235.14 116.43 238.43 120.31 235.26 121.09 225.72 123.31 221.84 117.89 234.13 115.25"/><polygon class="cls-3" points="244.99 126.85 258.6 123.53 258.6 123.53 264.5 122.09 267.4 121.39 273.32 126.38 273.76 126.75 273.32 126.86 250.19 132.96 244.99 126.85"/><polygon class="cls-2" points="273.32 125.4 268.34 121.19 273.32 119.98 278.31 118.77 284.86 123.86 274.67 126.55 273.32 125.4"/><polygon class="cls-2" points="279.26 118.54 287.54 116.53 294.45 121.32 285.79 123.6 279.26 118.54"/><polygon class="cls-2" points="288.54 116.3 298.04 113.99 305.31 118.45 295.42 121.09 288.54 116.3"/><polygon class="cls-2" points="287.69 115.71 280.96 111.04 289.82 108.94 297.11 113.43 287.69 115.71"/><polygon class="cls-2" points="280.1 110.46 274.43 106.53 282.92 104.7 288.92 108.35 280.1 110.46"/><polygon class="cls-2" points="273.57 105.94 273.31 105.75 265.64 100.45 273.21 98.72 273.31 98.78 281.98 104.11 273.57 105.94"/><polygon class="cls-3" points="264.79 99.84 260.43 96.83 267.63 95.28 272.29 98.14 264.79 99.84"/><polygon class="cls-3" points="249.64 96.33 249.64 96.33 251.48 97.75 249.21 98.24 248.1 98.48 242.94 99.59 240.67 97.68 243.44 97.12 243.44 97.12 244.46 96.92 244.5 96.92 248.07 96.21 249.18 95.99 249.18 95.99 249.48 96.23 249.48 96.23 249.64 96.33"/><polygon class="cls-3" points="234.68 99.07 239.73 98.06 242.02 99.99 234.75 101.56 225.27 103.63 223.34 101.37 234.68 99.07"/><polygon class="cls-2" points="224.43 103.78 221.25 104.46 213.42 106.13 211.64 103.64 221.15 101.75 222.5 101.48 224.43 103.78"/><polygon class="cls-2" points="212.6 106.33 202.63 108.47 201.1 105.77 210.81 103.83 212.6 106.33"/><polygon class="cls-2" points="213.09 107 215.93 110.96 205.41 113.36 203.04 109.17 213.09 107"/><polygon class="cls-2" points="216.42 111.63 220.54 117.37 209.08 119.85 205.8 114.05 216.42 111.63"/><polygon class="cls-2" points="221.02 118.05 221.75 119.04 221.75 119.04 224.91 123.47 224.62 123.54 212.76 126.35 209.48 120.54 221.02 118.05"/><polygon class="cls-2" points="215.72 133.12 201.52 136.6 198.92 130.46 212.38 127.27 215.72 133.12"/><polygon class="cls-2" points="216.1 133.81 220.11 140.88 205.03 144.91 201.83 137.32 216.1 133.81"/><polygon class="cls-2" points="220.5 141.56 225.27 150 209.15 154.59 205.33 145.61 220.5 141.56"/><polygon class="cls-2" points="221.26 141.36 235.11 137.71 240.78 145.59 226.03 149.79 221.26 141.36"/><polygon class="cls-2" points="235.92 137.49 249.92 133.83 256.17 141.19 241.54 145.35 235.92 137.49"/><polygon class="cls-2" points="250.76 133.61 250.76 133.61 273.34 127.65 274.5 127.34 282.13 133.83 256.98 140.99 250.76 133.61"/><polygon class="cls-2" points="275.38 127.09 285.64 124.42 293.56 130.55 283.04 133.55 275.38 127.09"/><polygon class="cls-2" points="286.56 124.14 295.28 121.84 303.66 127.66 294.46 130.27 286.56 124.14"/><polygon class="cls-2" points="296.25 121.64 306.22 119.02 315.08 124.47 304.63 127.44 296.25 121.64"/><polygon class="cls-2" points="307.24 118.74 316.16 116.39 325.24 121.57 316.08 124.17 307.24 118.74"/><polygon class="cls-2" points="306.34 118.18 299.1 113.75 307.79 111.63 315.2 115.85 306.34 118.18"/><polygon class="cls-2" points="298.19 113.17 290.91 108.69 299.21 106.72 306.83 111.07 298.19 113.17"/><polygon class="cls-2" points="289.99 108.12 284.01 104.47 292.14 102.71 298.24 106.19 289.99 108.12"/><polygon class="cls-2" points="283.09 103.88 274.3 98.48 281.76 96.78 291.18 102.14 283.09 103.88"/><polygon class="cls-2" points="273.37 98.03 273.34 98.03 268.71 95.19 273.32 94.2 275.99 93.64 280.77 96.38 273.37 98.03"/><polygon class="cls-3" points="273.34 93.05 270.86 93.6 270.8 93.6 267.77 94.28 267.42 94.06 267.1 93.86 265.36 92.78 271.75 91.51 272.58 91.34 274.99 92.72 273.34 93.05"/><polygon class="cls-3" points="263.31 92.62 256.37 94 252.64 91.42 259.23 90.11 263.31 92.62"/><polygon class="cls-3" points="255.33 94.21 249.42 95.39 249.24 95.25 248.14 94.39 246 92.73 248.14 92.31 249.24 92.08 251.59 91.62 255.33 94.21"/><polygon class="cls-3" points="248.13 95.36 248.41 95.58 248.13 95.64 239.94 97.28 236.74 94.58 244.99 92.92 248.13 95.36"/><polygon class="cls-3" points="238.99 97.46 234.56 98.36 234.56 98.36 222.83 100.69 221.09 98.64 220.36 97.83 221.01 97.7 231.54 95.61 231.54 95.61 235.78 94.76 238.99 97.46"/><polygon class="cls-2" points="221.09 99.87 221.94 100.86 221.13 101.02 211.16 103.02 209.06 100.08 219.52 98.01 221.09 99.87"/><polygon class="cls-2" points="210.33 103.19 200.72 105.11 199.02 102.09 208.23 100.26 210.33 103.19"/><polygon class="cls-2" points="199.93 105.27 189.19 107.41 187.88 104.31 198.22 102.26 199.93 105.27"/><polygon class="cls-2" points="200.33 105.97 201.87 108.68 190.74 111.08 189.49 108.13 200.33 105.97"/><polygon class="cls-2" points="202.26 109.38 204.64 113.58 192.93 116.25 191.04 111.79 202.26 109.38"/><polygon class="cls-2" points="205.03 114.27 208.3 120.06 195.68 122.79 193.22 116.97 205.03 114.27"/><polygon class="cls-2" points="208.69 120.76 211.97 126.58 198.61 129.74 195.97 123.5 208.69 120.76"/><polygon class="cls-2" points="200.77 136.78 186.5 140.25 184.67 133.83 198.17 130.63 200.77 136.78"/><polygon class="cls-2" points="201.07 137.5 204.29 145.1 189 149.13 186.69 140.98 201.07 137.5"/><polygon class="cls-2" points="204.59 145.81 208.39 154.8 191.93 159.48 189.21 149.86 204.59 145.81"/><polygon class="cls-2" points="208.69 155.51 213.12 166.03 195.36 171.49 192.17 160.23 208.69 155.51"/><polygon class="cls-2" points="209.43 155.3 225.64 150.69 231.22 160.54 213.88 165.82 209.43 155.3"/><polygon class="cls-2" points="226.37 150.47 241.22 146.25 247.83 155.47 231.95 160.31 226.37 150.47"/><polygon class="cls-2" points="242 146.04 256.69 141.87 264.06 150.54 248.6 155.25 242 146.04"/><polygon class="cls-2" points="257.51 141.61 282.83 134.41 291.88 142.03 264.87 150.28 257.51 141.61"/><polygon class="cls-2" points="283.71 134.16 294.29 131.15 303.71 138.43 292.77 141.76 283.71 134.16"/><polygon class="cls-2" points="295.2 130.89 304.47 128.29 314.44 135.19 304.59 138.19 295.2 130.89"/><polygon class="cls-2" points="305.42 127.99 315.94 125 326.47 131.48 315.34 134.87 305.42 127.99"/><polygon class="cls-2" points="316.93 124.71 326.14 122.09 337 128.29 327.47 131.19 316.93 124.71"/><polygon class="cls-2" points="327.18 121.81 335.8 119.35 346.97 125.25 338.01 127.98 327.18 121.81"/><polygon class="cls-2" points="326.25 121.25 317.21 116.11 325.52 113.92 334.84 118.83 326.25 121.25"/><polygon class="cls-2" points="316.25 115.55 308.87 111.35 316.93 109.39 324.49 113.38 316.25 115.55"/><polygon class="cls-2" points="307.9 110.8 300.29 106.45 307.93 104.65 315.91 108.86 307.9 110.8"/><polygon class="cls-2" points="299.32 105.9 293.26 102.44 300.7 100.84 306.91 104.1 299.32 105.9"/><polygon class="cls-2" points="292.29 101.89 282.87 96.53 289.61 94.99 299.66 100.29 292.29 101.89"/><polygon class="cls-2" points="281.89 95.97 277.13 93.25 283.64 91.84 288.57 94.44 281.89 95.97"/><polygon class="cls-2" points="276.13 92.68 273.74 91.32 280.21 90.03 282.59 91.29 276.13 92.68"/><polygon class="cls-2" points="272.73 90.75 268.42 88.28 274.57 87.06 279.14 89.47 272.73 90.75"/><polygon class="cls-3" points="266.25 87.93 259.36 89.3 254.93 86.58 261.91 85.47 266.25 87.93"/><polygon class="cls-3" points="244.19 92.32 235.99 93.95 231.69 90.33 239.91 89 244.19 92.32"/><polygon class="cls-2" points="235.04 94.14 230.84 94.98 220.99 96.94 219.8 97.17 216.12 92.84 220.82 92.08 226.65 91.14 230.69 90.49 235.04 94.14"/><polygon class="cls-2" points="218.94 97.34 208.56 99.41 205.13 94.63 215.25 92.97 218.94 97.34"/><polygon class="cls-2" points="207.74 99.56 198.62 101.37 195.66 96.17 204.28 94.77 207.74 99.56"/><polygon class="cls-2" points="197.83 101.53 187.57 103.57 185.14 97.83 194.85 96.26 197.83 101.53"/><polygon class="cls-2" points="186.81 103.74 176.72 105.75 174.95 99.49 184.36 97.97 186.81 103.74"/><polygon class="cls-2" points="187.11 104.46 188.42 107.56 177.83 109.67 176.93 106.49 187.11 104.46"/><polygon class="cls-2" points="188.73 108.28 189.98 111.24 178.95 113.62 178.04 110.41 188.73 108.28"/><polygon class="cls-2" points="190.28 111.96 192.17 116.42 180.5 119.08 179.16 114.36 190.28 111.96"/><polygon class="cls-2" points="192.47 117.14 194.93 122.96 182.36 125.67 180.7 119.82 192.47 117.14"/><polygon class="cls-2" points="195.24 123.67 197.88 129.92 184.47 133.09 182.58 126.41 195.24 123.67"/><polygon class="cls-2" points="185.74 140.42 170.1 144.21 169.24 137.47 183.92 134 185.74 140.42"/><polygon class="cls-2" points="185.95 141.16 188.26 149.34 171.33 153.77 170.22 144.96 185.95 141.16"/><polygon class="cls-2" points="188.47 150.05 191.2 159.69 172.76 164.94 171.43 154.55 188.47 150.05"/><polygon class="cls-2" points="191.4 160.43 194.6 171.71 174.42 177.85 172.86 165.7 191.4 160.43"/><polygon class="cls-2" points="194.8 172.44 198.68 186.11 176.44 193.57 174.52 178.62 194.8 172.44"/><polygon class="cls-2" points="195.53 172.22 213.44 166.75 218.78 179.37 199.39 185.86 195.53 172.22"/><polygon class="cls-2" points="214.19 166.51 231.61 161.2 238.19 172.83 219.51 179.1 214.19 166.51"/><polygon class="cls-2" points="232.36 160.97 248.33 156.1 256.04 166.84 238.92 172.6 232.36 160.97"/><polygon class="cls-2" points="249.08 155.89 264.59 151.16 273.07 161.13 256.77 166.6 249.08 155.89"/><polygon class="cls-2" points="265.4 150.9 292.58 142.59 302.74 151.15 273.86 160.84 265.4 150.9"/><polygon class="cls-2" points="293.45 142.35 304.43 139.03 314.88 147.12 303.59 150.91 293.45 142.35"/><polygon class="cls-2" points="305.32 138.73 315.24 135.71 326.2 143.3 315.75 146.81 305.32 138.73"/><polygon class="cls-2" points="316.17 135.4 327.36 131.99 338.81 139.08 327.09 143.01 316.17 135.4"/><polygon class="cls-2" points="328.35 131.7 337.92 128.78 349.6 135.43 339.79 138.72 328.35 131.7"/><polygon class="cls-2" points="338.93 128.47 347.93 125.7 359.84 131.98 350.57 135.09 338.93 128.47"/><polygon class="cls-2" points="348.97 125.41 357.16 122.91 369.34 128.82 360.86 131.66 348.97 125.41"/><polygon class="cls-2" points="348.01 124.9 336.87 119.03 344.62 116.81 356.15 122.41 348.01 124.9"/><polygon class="cls-2" points="335.88 118.54 326.58 113.64 333.98 111.68 343.57 116.33 335.88 118.54"/><polygon class="cls-2" points="325.58 113.11 318.06 109.14 325.18 107.41 332.94 111.17 325.58 113.11"/><polygon class="cls-2" points="317.03 108.6 309.06 104.4 315.71 102.82 324.08 106.89 317.03 108.6"/><polygon class="cls-2" points="308.04 103.86 301.87 100.6 308.3 99.21 314.65 102.29 308.04 103.86"/><polygon class="cls-2" points="300.84 100.04 290.76 94.73 296.44 93.44 307.21 98.67 300.84 100.04"/><polygon class="cls-2" points="289.72 94.18 284.81 91.59 290.24 90.42 295.34 92.9 289.72 94.18"/><polygon class="cls-2" points="283.76 91.04 281.4 89.79 286.75 88.73 289.13 89.88 283.76 91.04"/><polygon class="cls-2" points="280.33 89.23 275.77 86.82 280.75 85.83 285.59 88.17 280.33 89.23"/><polygon class="cls-2" points="274.69 86.26 270.53 84.04 275.51 83.24 279.66 85.26 274.69 86.26"/><polygon class="cls-2" points="269.4 83.49 265.86 81.62 270.59 80.9 274.3 82.7 269.4 83.49"/><polygon class="cls-2" points="268.15 83.69 262.78 84.54 262.78 84.54 262.05 84.65 258.62 82.7 260.19 82.46 264.57 81.79 268.15 83.69"/><polygon class="cls-3" points="260.86 84.87 253.95 85.98 250.63 83.94 257.39 82.87 260.86 84.87"/><polygon class="cls-3" points="245.41 87.37 240.14 88.22 237.26 86 242.3 85.23 245.41 87.37"/><polygon class="cls-3" points="239.11 88.36 230.95 89.68 228.18 87.35 236.22 86.12 239.11 88.36"/><polygon class="cls-2" points="229.95 89.84 225.96 90.49 220.82 91.32 215.57 92.17 213.4 89.6 220.72 88.5 223.34 88.09 227.18 87.51 229.95 89.84"/><polygon class="cls-2" points="214.66 92.29 204.62 93.95 202.69 91.26 212.48 89.76 214.66 92.29"/><polygon class="cls-2" points="203.78 94.05 195.25 95.42 193.65 92.59 201.84 91.34 203.78 94.05"/><polygon class="cls-2" points="194.45 95.55 184.83 97.13 183.58 94.15 192.84 92.74 194.45 95.55"/><polygon class="cls-2" points="184.06 97.21 174.74 98.72 173.86 95.61 182.8 94.25 184.06 97.21"/><polygon class="cls-2" points="173.98 98.88 164.48 100.42 164.06 97.13 173.09 95.75 173.98 98.88"/><polygon class="cls-2" points="174.19 99.62 175.96 105.89 165.44 107.98 164.58 101.15 174.19 99.62"/><polygon class="cls-2" points="176.17 106.63 177.07 109.82 166 112.04 165.57 108.75 176.17 106.63"/><polygon class="cls-2" points="177.28 110.56 178.19 113.78 166.51 116.29 166.06 112.79 177.28 110.56"/><polygon class="cls-2" points="178.39 114.51 179.73 119.25 167.25 122.09 166.6 117.05 178.39 114.51"/><polygon class="cls-2" points="179.94 119.98 181.6 125.83 168.11 128.75 167.35 122.85 179.94 119.98"/><polygon class="cls-2" points="181.8 126.57 183.73 133.28 169.15 136.72 168.23 129.52 181.8 126.57"/><polygon class="cls-2" points="169.59 144.39 152.82 148.46 152.94 141.39 168.73 137.65 169.59 144.39"/><polygon class="cls-2" points="169.31 145.16 170.41 153.98 152.26 158.75 152.43 149.23 169.31 145.16"/><polygon class="cls-2" points="170.66 154.75 172 165.15 152.16 170.79 152.35 159.57 170.66 154.75"/><polygon class="cls-2" points="172.09 165.91 173.66 178.1 151.91 184.74 152.14 171.62 172.09 165.91"/><polygon class="cls-2" points="173.76 178.85 175.67 193.81 151.6 201.9 151.89 185.51 173.76 178.85"/><polygon class="cls-2" points="175.77 194.59 178.23 213.74 151.21 223.97 151.59 202.71 175.77 194.59"/><polygon class="cls-2" points="176.51 194.34 198.86 186.84 203.74 204.08 178.97 213.46 176.51 194.34"/><polygon class="cls-2" points="199.59 186.59 219.05 180.06 225.7 195.75 204.47 203.8 199.59 186.59"/><polygon class="cls-2" points="219.8 179.8 238.56 173.53 246.65 187.83 226.42 195.49 219.8 179.8"/><polygon class="cls-2" points="239.3 173.26 256.47 167.49 265.84 180.54 247.38 187.56 239.3 173.26"/><polygon class="cls-2" points="257.25 167.24 273.62 161.75 283.8 173.74 266.6 180.26 257.25 167.24"/><polygon class="cls-2" points="274.42 161.48 303.46 151.74 315.39 161.79 284.59 173.46 274.42 161.48"/><polygon class="cls-2" points="304.31 151.46 315.61 147.68 327.8 157.09 316.16 161.49 304.31 151.46"/><polygon class="cls-2" points="316.49 147.36 327.01 143.83 339.67 152.59 328.64 156.77 316.49 147.36"/><polygon class="cls-2" points="327.91 143.53 339.69 139.57 352.78 147.62 340.52 152.26 327.91 143.53"/><polygon class="cls-2" points="340.65 139.26 350.5 135.94 363.71 143.47 353.69 147.26 340.65 139.26"/><polygon class="cls-2" points="351.47 135.63 360.78 132.5 374.13 139.54 364.63 143.14 351.47 135.63"/><polygon class="cls-2" points="361.76 132.17 370.29 129.31 383.8 135.88 375.06 139.2 361.76 132.17"/><polygon class="cls-2" points="379.36 125.46 370.34 128.49 358.2 122.61 367.06 119.92 379.36 125.46"/><polygon class="cls-2" points="366.02 119.43 357.21 122.11 345.71 116.52 354.24 114.1 366.02 119.43"/><polygon class="cls-2" points="353.16 113.62 344.68 116.03 335.11 111.39 343.42 109.17 353.16 113.62"/><polygon class="cls-2" points="342.29 108.7 334.06 110.87 326.35 107.13 334.46 105.16 342.29 108.7"/><polygon class="cls-2" points="333.33 104.65 325.27 106.6 316.91 102.54 324.63 100.71 333.33 104.65"/><polygon class="cls-2" points="323.49 100.22 315.82 102.03 309.51 98.94 317.1 97.28 323.49 100.22"/><polygon class="cls-2" points="315.93 96.79 308.4 98.38 297.61 93.14 304.47 91.6 315.93 96.79"/><polygon class="cls-2" points="303.36 91.08 296.54 92.63 291.46 90.16 297.64 88.83 297.55 88.45 303.36 91.08"/><polygon class="cls-2" points="296.99 88.19 290.34 89.62 287.99 88.48 293.68 87.34 293.53 86.62 296.99 88.19"/><polygon class="cls-2" points="293.49 86.61 286.84 87.92 282.01 85.58 288.41 84.31 293.49 86.61"/><polygon class="cls-2" points="287.21 83.77 280.89 85.03 276.78 83.05 283.27 82 287.21 83.77"/><polygon class="cls-2" points="282.05 81.43 275.62 82.46 271.9 80.66 278.22 79.69 282.05 81.43"/><polygon class="cls-2" points="274.06 77.82 276.97 79.13 270.69 80.11 267.92 78.75 274.06 77.82"/><polygon class="cls-2" points="266.6 78.92 269.37 80.28 264.71 80.99 262.07 79.6 266.6 78.92"/><polygon class="cls-2" points="257.5 80.28 257.5 80.28 260.82 79.79 263.47 81.19 259.41 81.81 257.58 82.09 255.06 80.65 257.5 80.28"/><polygon class="cls-3" points="253.84 80.84 256.36 82.28 249.63 83.3 247.23 81.83 253.84 80.84"/><polygon class="cls-3" points="246.08 82 248.49 83.48 242.53 84.39 240.31 82.86 246.08 82"/><polygon class="cls-3" points="239.21 83.03 241.43 84.56 236.44 85.32 234.41 83.74 239.21 83.03"/><polygon class="cls-3" points="233.38 83.9 235.41 85.48 227.43 86.7 225.45 85.09 233.38 83.9"/><polygon class="cls-2" points="220.64 85.8 220.83 85.78 224.49 85.22 226.41 86.84 222.63 87.4 220.7 87.69 212.83 88.89 211.36 87.16 220.64 85.8"/><polygon class="cls-2" points="210.43 87.31 211.91 89.04 202.19 90.52 200.9 88.75 210.43 87.31"/><polygon class="cls-2" points="200.05 88.86 201.34 90.65 193.25 91.89 192.19 90.03 200.05 88.86"/><polygon class="cls-2" points="191.39 90.15 192.44 92.01 183.27 93.41 182.46 91.48 191.39 90.15"/><polygon class="cls-2" points="181.68 91.6 182.5 93.53 173.63 94.88 173.08 92.88 181.68 91.6"/><polygon class="cls-2" points="172.32 93 172.87 94.99 163.95 96.36 163.69 94.28 172.32 93"/><polygon class="cls-2" points="153.48 95.81 162.9 94.4 163.17 96.47 153.43 97.96 153.48 95.81"/><polygon class="cls-2" points="153.41 98.73 163.28 97.28 163.7 100.57 153.37 102.23 153.41 98.73"/><polygon class="cls-2" points="153.47 102.97 163.91 101.28 164.79 108.11 153.37 110.41 153.47 102.97"/><polygon class="cls-2" points="153.26 111.19 164.8 108.91 165.22 112.2 153.17 114.6 153.26 111.19"/><polygon class="cls-2" points="153.19 115.36 165.35 112.94 165.8 116.45 153.12 119.18 153.19 115.36"/><polygon class="cls-2" points="153.11 119.97 165.9 117.2 166.54 122.25 153.01 125.33 153.11 119.97"/><polygon class="cls-2" points="153 126.13 166.64 123.03 167.4 128.91 152.89 132.05 153 126.13"/><polygon class="cls-2" points="167.49 129.67 168.42 136.87 152.74 140.58 152.88 132.83 167.49 129.67"/><polygon class="cls-2" points="141.51 97.62 152.77 95.96 152.73 98.11 141.17 99.88 141.51 97.62"/><polygon class="cls-2" points="141.06 100.65 152.69 98.86 152.63 102.33 140.47 104.3 141.06 100.65"/><polygon class="cls-2" points="140.38 105.08 152.64 103.1 152.48 110.57 139.12 113.23 140.38 105.08"/><polygon class="cls-2" points="138.79 114.01 152.26 111.33 152.21 114.73 138.26 117.5 138.79 114.01"/><polygon class="cls-2" points="138.21 118.32 152.26 115.52 152.2 119.35 137.58 122.49 138.21 118.32"/><polygon class="cls-2" points="137.59 123.31 152.31 120.14 152.22 125.53 136.71 129.06 137.59 123.31"/><polygon class="cls-2" points="136.59 129.87 152.2 126.31 152.1 132.22 135.69 135.77 136.59 129.87"/><polygon class="cls-2" points="135.57 136.6 152.08 133.03 151.94 140.81 134.3 144.98 135.57 136.6"/><polygon class="cls-2" points="134.18 145.79 151.93 141.59 151.81 148.66 133.05 153.22 134.18 145.79"/><polygon class="cls-2" points="132.92 154.04 151.79 149.47 151.6 158.98 131.34 164.32 132.92 154.04"/><polygon class="cls-2" points="131.26 165.18 151.63 159.8 151.44 171.03 129.42 177.3 131.26 165.18"/><polygon class="cls-2" points="129.3 178.12 151.42 171.83 151.19 184.98 127.14 192.3 129.3 178.12"/><polygon class="cls-2" points="126.99 193.1 151.15 185.74 150.86 202.13 124.27 211.06 126.99 193.1"/><polyline class="cls-2" points="120.39 236.44 150.43 225.06 149.94 252.82 115.64 267.77 120.39 236.44"/><polygon class="cls-2" points="120.28 235.6 123.89 211.93 150.6 202.97 150.25 224.27 120.28 235.6"/><polygon class="cls-2" points="150.71 252.48 151.2 224.79 178.34 214.51 181.51 239.07 150.71 252.48"/><polygon class="cls-2" points="182.21 238.73 179.07 214.24 203.96 204.83 210.11 226.56 182.21 238.73"/><polygon class="cls-2" points="210.82 226.23 204.67 204.54 225.99 196.47 234.25 216 210.82 226.23"/><polygon class="cls-2" points="234.95 215.71 226.71 196.21 247.02 188.51 256.99 206.09 234.95 215.71"/><polygon class="cls-2" points="257.66 205.78 247.73 188.24 266.29 181.22 277.65 197.06 257.66 205.78"/><polygon class="cls-2" points="278.37 196.74 267.06 180.91 284.33 174.38 296.56 188.78 278.37 196.74"/><polygon class="cls-2" points="297.27 188.48 285.08 174.08 316.04 162.36 330.04 174.16 297.27 188.48"/><polygon class="cls-2" points="330.8 173.84 316.85 162.08 328.48 157.65 342.69 168.66 330.8 173.84"/><polygon class="cls-2" points="343.47 168.3 329.31 157.33 340.39 153.13 355.01 163.26 343.47 168.3"/><polygon class="cls-2" points="355.83 162.9 341.26 152.8 353.58 148.14 368.53 157.35 355.83 162.9"/><polygon class="cls-2" points="369.4 156.97 354.45 147.8 364.51 143.99 379.5 152.55 369.4 156.97"/><polygon class="cls-2" points="380.41 152.16 365.45 143.64 374.99 140.03 390.03 147.96 380.41 152.16"/><polygon class="cls-2" points="390.93 147.57 375.94 139.67 384.73 136.34 399.84 143.68 390.93 147.57"/><polygon class="cls-2" points="400.76 143.28 385.71 135.97 394.88 132.5 409.9 139.29 400.76 143.28"/><polygon class="cls-3" points="273.56 92.97 273.56 128.56 235.52 137.15 222.02 119.97 220.83 85.59 220.79 84.38 255.15 78.24 273.56 92.97"/><polygon class="cls-4" points="273.56 93.22 273.56 128.56 235.92 137.06 235.52 137.15 222.02 119.97 220.83 85.59 234.9 98.49 273.56 93.22"/><polygon class="cls-5" points="273.56 93.33 273.56 128.56 235.92 137.06 234.9 98.49 272.95 93.58 273.56 93.33"/><polygon class="cls-6" points="252.38 89.72 250.51 86.48 248.64 83.25 246.76 86.48 244.89 89.72 248.08 89.72 248.08 104.68 249.19 104.68 249.19 89.72 252.38 89.72"/><polygon class="cls-6" points="263.84 120.82 261.97 117.57 260.67 119.81 250.99 110.64 250.23 111.45 260.1 120.8 260.09 120.82 258.22 124.06 261.97 124.06 265.71 124.06 263.84 120.82"/><polygon class="cls-6" points="268.29 103.53 264.77 102.24 265.36 105.63 252.73 107.88 252.92 108.97 265.55 106.72 266.05 109.63 268.93 107.23 271.81 104.82 268.29 103.53"/><polygon class="cls-7" points="419.44 445.94 420.45 462.68 426.03 468.76 437.7 460.14 430.09 442.9 419.44 445.94"/><path class="cls-8" d="M433.13,461.66s.23-3.38.62-9.8c0,0,17.13-3.38,16.12,8.28s-9.64,15.72-9.64,15.72-4.05-.5-3.55,3.55S422,492.09,414.88,484l4.36-25.61s4.76,3.29,6.29,1.77S433.13,461.66,433.13,461.66Z"/><polygon class="cls-7" points="404.47 129.73 418.67 159.65 393.14 166.62 388.24 139.36 404.47 129.73"/><circle class="cls-7" cx="389.76" cy="126.69" r="19.78"/><path class="cls-8" d="M402.71,135.17c-1.79-.11-3.55.5-5.33.74A13.5,13.5,0,0,1,383,125.84a7.6,7.6,0,0,0-.74-2.4c-1-1.6-3.22-1.91-5.06-1.54s-3.59,1.23-5.47,1.33a8.38,8.38,0,0,1-7.23-4.09,13.9,13.9,0,0,1-1.77-8.38l1.39,1.46a7.14,7.14,0,0,0,.63-3.84,4.43,4.43,0,0,1,4.21,1.08c1.23.13.31-2.27,1.22-3.1a2.11,2.11,0,0,1,1.48-.28c2.6,0,4.71-2,6.77-3.57A28.73,28.73,0,0,1,390.53,97a16.1,16.1,0,0,1,8.87.43,18.84,18.84,0,0,1,6,4.25c4.37,4.2,8.25,9.14,10.06,14.93a25.11,25.11,0,0,1,.12,14.57c-.73,2.47-2.94,10.94-6.17,11.14C405.33,142.53,407.77,135.47,402.71,135.17Z"/><polygon class="cls-7" points="377.84 445.94 376.83 462.68 371.25 468.76 359.59 460.14 367.19 442.9 377.84 445.94"/><path class="cls-9" d="M384.18,156.61s2.54-18.77,26.88-12.68,26.88,11.66,26.88,11.66.51,5.07,2,5.58,5.58,3,3.55,4.57,9.13,16.73,9.13,16.73,6.59,4.06,2.54,23.33S446.56,253,446.56,253s1.53,9.13-.5,14.2,2,8.62,2,10.65-1,12.17-1,12.17-69-2.54-78.61,0S384.18,156.61,384.18,156.61Z"/><path class="cls-8" d="M444.94,285.46s4.06,9.63,0,25.36-5.07,55.28-5.07,55.28,0,76.58-3.55,80.63-2.54,10.65-2.54,10.65H418.57s.5-8.11-1.53-12.67S415.52,391,415.52,391l-8.62-69L389.66,387.4s-6.59,48.68-9.13,50.71,0,10.15,0,10.15a25,25,0,0,1-15.22-2.54v-8.11s-7.6-3.05-5.07-14.21,1.52-132.36,9.13-137.94S444.94,285.46,444.94,285.46Z"/><path class="cls-8" d="M364.15,461.66s-.22-3.38-.62-9.8c0,0-17.13-3.38-16.11,8.28s9.63,15.72,9.63,15.72,4.06-.5,3.55,3.55,14.71,12.68,21.81,4.57L378,458.37s-4.76,3.29-6.28,1.77S364.15,461.66,364.15,461.66Z"/><path class="cls-7" d="M357.3,287.45l-1.52,7.1s-18.25,28.91-3,31.95,14.2-27.89,14.2-27.89l1.52-6.59Z"/><path class="cls-9" d="M375.31,160.92s10.65-7.1,15.72,1.52,10.14,28.4,10.14,28.4L394.58,239l-24.34,55.79-14.71-5.58s2.54-7.1,1.52-10.14,4.06-10.65,4.06-10.65l5.07-39.56S368.21,161.43,375.31,160.92Z"/><polygon class="cls-4" points="394.33 237.75 377.59 298.1 369.98 295.06 394.33 237.75"/><path class="cls-4" d="M433.65,174.71a50,50,0,0,0,12.24-1.47l-.25-1c-9.47,2.4-20.18,1.81-31.83-1.75-10.37-3.17-20.16-8.25-29.63-13.16l-.47.9c9.51,4.93,19.35,10,29.8,13.23A69.2,69.2,0,0,0,433.65,174.71Z"/><path class="cls-8" d="M155.14,156.27c-6.07-14.32-21.51-17-21.51-17s-14.87-4-27.29,14.93c-11.57,17.6-26.5,34.1-7.57,41.13l5-10.5.6,12.08a75.43,75.43,0,0,0,8.33,1.27c21,2.13,40.79,5.68,41.16-1.91C154.34,186.16,161,170,155.14,156.27Z"/><path class="cls-10" d="M91.08,270.9l-1.35,34.45s-14.19,27.7-2.7,27,10.13-27,10.13-27l4-32.42Z"/><path class="cls-10" d="M168.76,264.82l4.06,34.45s12.16,18.24,2.7,24.32S166.06,302,166.06,302l-10.13-35.12Z"/><path class="cls-10" d="M154.58,329l-12.16,47.29s-5.4,18.91-12.84,28.37l-2.7,5.4-10.81-1.35,7.44-30.39,4.72-56.07Z"/><path class="cls-4" d="M154.58,329l-12.16,47.29s-5.4,18.91-12.84,28.37l-2.7,5.4-10.81-1.35,7.44-30.39,4.72-56.07Z"/><path class="cls-8" d="M113.4,401.16l18.47,4.28-7.61,17.95s3.09,10.74.15,16.43-2.53,16-2.53,16l-4-.63s-9.72,18.3-21.21,13.07.74-17.67.74-17.67S107.34,431,108.6,423,113.4,401.16,113.4,401.16Z"/><path class="cls-4" d="M113.4,401.16l18.47,4.28-7.61,17.95s3.09,10.74.15,16.43-2.53,16-2.53,16l-4-.63s-9.72,18.3-21.21,13.07.74-17.67.74-17.67S107.34,431,108.6,423,113.4,401.16,113.4,401.16Z"/><path class="cls-10" d="M98.05,318.74l10.14,50.66s-3.38,25,.67,40.53l4,14.86h13.51V370.08s.68-44.59-1.35-48S98.05,318.74,98.05,318.74Z"/><path class="cls-8" d="M128.91,419.71,110,421.06,114.72,440S110,450.11,112,456.19s0,16.21,0,16.21h4S122.83,492,135,488.61s2-17.56,2-17.56-6.76-20.94-6.76-29.05S128.91,419.71,128.91,419.71Z"/><circle class="cls-10" cx="133.64" cy="167.55" r="18.24"/><path class="cls-10" d="M121.14,174.64s1.35,23-2.7,24.32,20.94,0,20.94,0-3.38-14.19,0-18.24S121.14,174.64,121.14,174.64Z"/><path class="cls-11" d="M139.72,195.24s-17.57-1.35-20.94,0-12.84,8.11-12.84,8.11l4.73,42.56,38.5,8.1,6.08-8.78,6.08-12.83-2.7-16.22-.67-9.45Z"/><path class="cls-11" d="M102.56,206.05s-8.78,2-9.45,8.78-.68,23.64,0,26.35,0,4-.68,4.73-2-.68-.67,1.35,1.35,2,.67,4.05-2.7-.68-1.35,2.7,2,4.05,1.35,4.73S89.73,275,89.73,275l11.48,2,11.49-39.86Z"/><path class="cls-11" d="M155.25,206.05a7.21,7.21,0,0,1,6.08,4c2,4.06,7.43,30.4,6.76,32.43s-2-.68-.68,3.38,0,3.37.68,6.07-2.7,0,0,2.71,4,3.37,2.7,4.73-3.38-1.36-1.35,1.35,2,6.75,2,6.75l-16.22,3.38-4.72-37.83Z"/><path class="cls-8" d="M100.28,205l3.33-1.67a2.82,2.82,0,0,1,3.8,1.28v0l15.24,31.16,16.89,10.81,12.16-5.4s8.78-13.51,6.08-20.27c-1.83-4.58-4-11.63-5.17-15.69a1.2,1.2,0,0,1,.82-1.5,1.22,1.22,0,0,1,1,.15l2.3,1.54a3.35,3.35,0,0,1,1.43,2.12l5,24.19-6.75,14.19v13.51l4.73,72.95s-17.57-2.7-35.13-6.08-39.86-6.08-39.86-6.08,11.49-59.44,20.94-69.58c0,0,0-7.43,1.36-8.1s2.7-5.41,2.7-5.41L98.94,208.64A2.85,2.85,0,0,1,100.28,205Z"/><polygon class="cls-8" points="151.54 151.07 136.07 142.96 114.69 146.28 110.27 165.81 121.28 165.38 124.35 158.21 124.35 165.27 129.43 165.07 132.38 153.65 134.22 165.81 152.28 165.44 151.54 151.07"/><ellipse class="cls-10" cx="115.06" cy="167.55" rx="2.03" ry="3.55"/><path class="cls-12" d="M318.49,189.31H201.66a6.94,6.94,0,0,0-6.94,6.94V313.08a6.94,6.94,0,0,0,6.94,6.94H318.49a7,7,0,0,0,6.95-6.94V196.25A7,7,0,0,0,318.49,189.31Zm-58.41,11.76h34V205h-34Zm-15.69,0h9.15V205h-9.15Zm-15.68,0h9.15V205h-9.15ZM207.08,203a5.71,5.71,0,0,1,5.72-5.72,5.72,5.72,0,1,1-5.72,5.72ZM213,220.68h31.37v11.76h7.84v9.15h5.23v5.23h5.23v-5.23h5.23v-9.15h7.84V220.68h31.38v68H282.3v-7.84h6.54v-3.92H232.63v3.92h6.53v7.84H213Zm65.36,60.13v7.84h-35.3v-7.84Zm-23.53,27.45H245.7v-3.92h9.15Zm15.69,0h-9.15v-3.92h9.15Zm40.52,0h-34v-3.92h34Z"/><rect class="cls-13" x="190.84" y="330.55" width="135.7" height="94.71"/><path class="cls-14" d="M338.17,434.68H201.37V338.85h136.8Z"/><path class="cls-7" d="M133.89,450.93s-1.67,16.62-4.44,22.16c0,0,16.62,3.87,17.17.55s-.55-16.06-.55-16.06Z"/><path class="cls-7" d="M145,227.16s-11.63,38.78-4.43,46,24.37,31.57,24.37,31.57l5.54-9.42s-19.38-27.14-17.17-33.23S161,239.35,161,239.35,151.61,225,145,227.16Z"/><circle class="cls-7" cx="199.24" cy="157.93" r="22.16"/><path class="cls-7" d="M179.3,160.7s-8.86,23.82-13.84,26-13.85,12.74-13.85,12.74-1.11,27.69,5,27.69,39.88-39.32,39.88-39.32-1.66-7.76,1.67-12.19S179.3,160.7,179.3,160.7Z"/><path class="cls-8" d="M242.43,287.4,220.75,251,170.9,269.81v6.65s-10,17.17-10.52,48.19l-5,55.38s-26,42.1-22.15,66.47l-.55,9.42L146,460.35l4.43-7.76s4.43-.55,8.31-12.74l23.81-53.72,14.41-43.76,8.86,57.05s-3.88,52.62,6.09,54.28V462l18.28.55"/><path class="cls-8" d="M132.78,472s-5.54-2.22-6.65.55-8.86,17.73,0,18.83a49.33,49.33,0,0,0,14.4,0s7.2-1.1,10-.55,13.85-1.11,12.74-9.42-8.31-7.2-8.31-7.2-7.2-4.43-7.2-6.09-2.77,2.77-2.77,2.77S142.75,474.75,132.78,472Z"/><path class="cls-11" d="M162.69,216.64s-18.83-4.3,0-28.18c0,0-15,4.36-16.62,16s-2.21,26-2.21,26,9.41-2.77,14.4,10,12.18,19.38,10,32.68l55.38-20.5s-7.75-16.06-3.87-23.26-1.11-20.49-1.11-20.49-15-36-28.8-21.61S177.09,213.32,162.69,216.64Z"/><path class="cls-7" d="M240.23,283.66l-21-37.66-5-35.45-18.83,3.87s2.21,36.56,8.3,43.21S234.14,292,234.14,292"/><path class="cls-11" d="M212.54,185.62s-12.92-7.46-16.43-.68-1.85,33.92-1.85,33.92l23.26-2.77S215.86,186.18,212.54,185.62Z"/><path class="cls-8" d="M233.1,146.9c2.58,6-8.34,9.59-8.65,9.69,4.1-4.91.69-4.91.69-4.91-.28,1.76-2.1,3.94-3.94,5.77a45.69,45.69,0,0,1-4.13,3.6l.39-1.35-3.61,2.37c-1.19,10.87-7.33,9.35-7.33,9.35,5.06-3.18,3.66-8.46,3-11.1s-5.44-2.08-5.72,5.64-5.52,9.65-5.52,9.65l-1,4.4-.88,3.83L194,179.5l-1.13-2c-7.53.75-8.41-6.33-8.41-6.33a38.8,38.8,0,0,1-4.91-2.76c-11.77-7.9-7.81-17-5-21.14a17.83,17.83,0,0,1,1.85-2.31l-.5.09c-22.58,4.23-11.13-8.81-11.13-8.81L159.08,139l-10.62,1.33,8.58-7.76c-6.15-.34-12.31,9.25-12.5,9.55,3.82-11.57,11.28-10.39,11.28-10.39l-2.25-.65,3.93-1.8-4.57.63s1.29-1.09,3.29-3,11.46-2.54,11.46-2.54c-9.64-3.76-19.13,3.75-19.13,3.75,5.22-11.82,18-7.62,24.38-4.61l3.1.36a25.69,25.69,0,0,1-.1-4.44c.07-5.2,6.23,3.87,6.54,4.32,0-.07.32-.42,4.52-2.09,4.89-2,2.81,8.78,2.75,9.07h0s-.05.08.36,0c.77-.1,3.15-.65,10.49-3,6.33-2,10.26.07,12.49,2.27a31.9,31.9,0,0,0,10.22,7c1.24.51,2.34.93,3.06,1.14,2.7.78,4.11,2.65,6.74,8.77"/><path class="cls-11" d="M190.1,130.75c-2.6,3.7-10.11,13.93-15.57,16.48a17.83,17.83,0,0,1,1.85-2.31l-.5.09,13.86-14.27h0Z"/><path class="cls-7" d="M214.4,460.71s-1.66,16.62-4.43,22.16c0,0,16.61,3.87,17.17.55S226,462.37,226,462.37"/><path class="cls-8" d="M225.48,480.65s-2.22,3.88-12.19,1.11c0,0-5.54-2.22-6.65.55s-8.86,17.73,0,18.83a49.3,49.3,0,0,0,14.4,0s7.2-1.1,10-.55,13.85-1.11,12.74-9.41-8.3-7.21-8.3-7.21-7.21-4.43-7.21-6.09"/></svg>