<svg version="1.1" xmlns="http://www.w3.org/2000/svg" xmlns:xlink="http://www.w3.org/1999/xlink" x="0px" y="0px" width="160.9px" height="103.3px" viewBox="0 0 160.9 103.3" style="enable-background:new 0 0 160.9 103.3;" xml:space="preserve">
<style type="text/css">.a{fill:#fff;} </style>
<g>
	<path class="a" d="M121.8,35.7c6.2,6.6,8.2,15,4.7,24.2c-3.4,8.9-10.3,13.8-19.9,14.5c-4.7,0.3-9.4,0.3-14.1,0.3c-2.7,0-4.3-1.6-4.3-4 c0-2.4,1.7-4,4.3-4.1c4.3-0.1,8.5-0.1,12.8-0.2c8.1-0.3,14.2-6.2,14.7-14.1c0.5-8.1-6.2-15.5-14.3-15.6c-4.5-0.1-9.1,0.2-13.6,0.1 c-3.3,0-5.2-3-4-5.8c0.6-1.3,1.6-2.3,3-2.3c5.9-0.1,11.8-0.2,17.6,0.2C113.5,29.2,117.7,31.7,121.8,35.7z"/>
	<path class="a" d="M40.1,67.5c-5.6-6.1-7.5-14.5-4-23.9c3.1-8.4,11.4-14.1,20.6-14.4C61.1,29.1,65.5,29,70,29c2.7,0,4.4,1.5,4.5,3.9 c0,2.5-1.6,4.1-4.4,4.2c-4.3,0.1-8.5,0.1-12.8,0.2c-8,0.2-14.7,6.8-14.7,14.4c0,8.8,6.3,15.3,14.9,15.4c4.2,0,8.4-0.2,12.6-0.1 c1.3,0,2.8,0.6,3.7,1.4c1.2,1,1.4,2.7,0.8,4.3c-0.6,1.5-1.8,2.3-3.4,2.4c-5.6,0.1-11.3,0.3-16.9,0C49.3,74.7,45,72.3,40.1,67.5z"/>
	<path class="a" d="M95,48.6c2.1,2.4,1.1,6.2-1.9,7c-0.6,0.2-1.2,0.2-1.8,0.2C84.6,55.9,77.8,56,71.1,56c-2.8,0-4.5-1.6-4.5-4 c0-2.2,1.6-4,3.8-4c7.2-0.1,14.5-0.2,21.7-0.2C93.1,47.7,94.1,48.3,95,48.6z"/>
</g>
<path class="a" d="M143.9,103.3H17.1C7.7,103.3,0,95.6,0,86.2V17.1C0,7.7,7.7,0,17.1,0h126.7c9.4,0,17.1,7.7,17.1,17.1v69.1 C160.9,95.6,153.3,103.3,143.9,103.3z M17.1,9c-2.1,0-4.2,0.8-5.7,2.4C9.9,12.9,9,14.9,9,17.1v69.1c0,4.4,3.6,8.1,8.1,8.1h126.7 c4.4,0,8.1-3.6,8.1-8.1V17.1c0-4.4-3.6-8.1-8.1-8.1H17.1L17.1,9z"/>
</svg>
