<svg xmlns="http://www.w3.org/2000/svg" viewBox="0 0 160 103">
<style type="text/css">.a{fill:#fff;}</style>
<path class="a" d="M142.8-0.1L16.1-0.1C6.9-0.1 0 7.2 0 17V86.1c0 9.7 6.9 17.1 16.1 17.1h126.7c9.4 0 17.1-7.7 17.1-17.1V17C159.8 7.5 152.2-0.1 142.8-0.1zM150.8 86.1c0 4.4-3.6 8.1-8.1 8.1H16.1c-4.9 0-7.1-4.2-7.1-8.1V17c0-3.8 2.1-7.9 6.8-8.1h126.9c4.4 0 8.1 3.6 8.1 8.1V86.1z"/>
<path class="a" d="M110.4 37.4V29.2 15.4h-2.3V19.8l-4.5 0 0-4.4h-2.1v20.4c-0.1 0-0.1 0-0.2 0 -0.7 0-1.4 0-2 0.1V21.8v-6.1H85.7c-1.1-1.2-2.6-2-4.3-2L35.8 13.6c-3.6 0-6.5 3.6-6.5 8.1v33.4c0 4.5 2.9 8.1 6.5 8.1h21.3v23.1l2.1 0V84.7h0l0-2.8h0l0-0.2 0-0.2h0l0-1v1.8h4.5v2.5h0l0 1.2h0v0.1l2.3 0v-4.6V63.2h2.6v20.7 1.4 0.1h16.9c4.5 3.2 10 5.1 15.9 5.1 15.1 0 27.3-12.3 27.3-27.3C128.7 51.3 121.1 41.1 110.4 37.4zM63.6 80.5h-4.5l0-5.4 4.4 0V80.5zM63.6 71.7h-4.4v-6.8l4.5 0L63.6 71.7zM103.6 23.2h4.5v6.8l-4.5 0V23.2zM103.8 33c2 0 4.7 0 4.7 0l0 3.8c-1.6-0.4-3.2-0.7-4.9-0.8C103.7 35.9 103.6 33 103.8 33zM33.3 55.1v-33.4c0-2.4 1.3-4.1 2.5-4.1l45.7 0c1.2 0 2.5 1.7 2.5 4.1v17.9l-8.6-11.7 -10.1 15 -8.5-7.9L37.9 53.1h38.1c-0.1 0.3-0.3 0.6-0.4 0.9 -0.6 1.6-1 3.3-1.3 5 0 0.1 0 0.1 0 0.2H35.8C34.6 59.2 33.3 57.5 33.3 55.1zM101.4 86.5c-12.9 0-23.3-10.5-23.3-23.3 0-1.4 0.1-2.8 0.4-4.2 0.3-1.7 0.8-3.4 1.5-5 3.6-8.3 11.8-14.2 21.4-14.2 12.9 0 23.3 10.5 23.3 23.3C124.7 76 114.3 86.5 101.4 86.5z"/>
<path class="a" d="M97.7 50.1c-0.7-0.3-1.6-0.1-2.2 0.4l-6.8 6.8h-3.1c-1.1 0-2 0.9-2 2v7.7c0 1.1 0.9 2 2 2h3.1l6.8 6.7c0.4 0.4 0.9 0.6 1.4 0.6 0.3 0 0.5-0.1 0.8-0.2 0.7-0.3 1.2-1 1.2-1.8V51.9C98.9 51.1 98.4 50.4 97.7 50.1z"/>
<path class="a" d="M107.3 63.2c0-1.1-0.1-2.1-0.4-3.2 -0.2-1-0.6-2-1.1-2.9 -0.5-0.9-1.1-1.7-1.8-2.4 -0.3-0.3-0.6-0.4-0.9-0.3s-0.5 0.2-0.7 0.4c-0.2 0.2-0.3 0.5-0.3 0.8 0 0.3 0.1 0.6 0.4 0.8 0.5 0.5 1 1.1 1.4 1.8 0.4 0.7 0.6 1.5 0.8 2.4 0.2 0.8 0.3 1.7 0.3 2.6s-0.1 1.8-0.3 2.6 -0.5 1.6-0.8 2.3c-0.4 0.7-0.8 1.2-1.4 1.6 -0.3 0.2-0.4 0.5-0.4 0.8 0 0.3 0.1 0.6 0.3 0.8 0.2 0.2 0.4 0.4 0.7 0.5 0.3 0.1 0.6 0 0.9-0.3 0.8-0.7 1.4-1.4 1.9-2.3 0.5-0.9 0.9-1.8 1.1-2.9C107.2 65.3 107.3 64.3 107.3 63.2z"/>
<path class="a" d="M112.2 67.9c0.4-1.4 0.5-2.9 0.6-4.5 0-1.5-0.2-3-0.5-4.5 -0.3-1.5-0.9-2.9-1.6-4.2 -0.7-1.3-1.6-2.5-2.6-3.5 -0.3-0.3-0.6-0.4-0.9-0.3 -0.3 0-0.6 0.2-0.8 0.4 -0.2 0.2-0.3 0.5-0.3 0.8 0 0.3 0.1 0.6 0.4 0.8 0.9 0.8 1.6 1.8 2.2 3 0.6 1.1 1 2.4 1.3 3.7 0.3 1.3 0.4 2.6 0.4 4s-0.2 2.7-0.5 3.9c-0.3 1.2-0.7 2.4-1.3 3.5 -0.6 1.1-1.3 1.9-2.2 2.6 -0.3 0.2-0.5 0.5-0.5 0.8s0.1 0.6 0.3 0.8c0.2 0.2 0.4 0.4 0.7 0.4 0.3 0.1 0.6 0 0.9-0.3 1.1-0.9 2-2 2.7-3.3C111.3 70.7 111.8 69.3 112.2 67.9z"/>
<path class="a" d="M115.4 52.3c-0.9-1.7-2.1-3.2-3.4-4.6 -0.3-0.3-0.6-0.4-0.9-0.3 -0.3 0-0.6 0.2-0.8 0.4 -0.2 0.2-0.3 0.5-0.4 0.8s0.1 0.6 0.4 0.8c1.2 1.1 2.2 2.4 3 4 0.8 1.5 1.4 3.2 1.8 4.9 0.4 1.7 0.6 3.5 0.6 5.3 0 1.8-0.2 3.5-0.6 5.2 -0.4 1.7-1 3.2-1.8 4.6 -0.8 1.4-1.8 2.6-3 3.5 -0.3 0.2-0.4 0.5-0.4 0.8s0.1 0.6 0.3 0.8c0.2 0.2 0.4 0.4 0.7 0.5 0.3 0.1 0.6 0 0.9-0.2 1.4-1.2 2.6-2.6 3.5-4.2 0.9-1.6 1.6-3.3 2.1-5.2 0.5-1.8 0.7-3.8 0.7-5.7 0-2-0.2-3.9-0.7-5.8C117 55.8 116.3 54 115.4 52.3z"/>
<path class="a" d="M47.5 31.9c2.6 0 4.7-2.1 4.7-4.7 0-2.6-2.1-4.7-4.7-4.7 -2.6 0-4.7 2.1-4.7 4.7C42.8 29.8 44.9 31.9 47.5 31.9z"/>
</svg>
