<!-- Generator: Adobe Illustrator 23.0.3, SVG Export Plug-In  -->
<svg version="1.1" xmlns="http://www.w3.org/2000/svg" xmlns:xlink="http://www.w3.org/1999/xlink" x="0px" y="0px" width="159.1px"
	 height="104px" viewBox="0 0 159.1 104" style="enable-background:new 0 0 159.1 104;" xml:space="preserve">
<style type="text/css">
	.st0{fill:#ffffff;}
	.st2{fill:#ffffff;}
</style>
<defs>
</defs>
<path class="st0" d="M141.4,104H15.9C6.8,104,0,96.7,0,87.1V19C0,9.4,6.8,2.1,15.9,2.1l125.5,0c9.3,0,16.9,7.5,16.9,16.8v68.2
	C158.3,96.4,150.7,104,141.4,104z M15.9,11c-2,0-3.7,0.7-5,2.1c-1.3,1.5-2,3.5-2,5.8v68.2c0,3.8,2.2,8,7,8h125.5c4.4,0,8-3.6,8-8V19
	c0-4.4-3.6-8-8-8H15.9C15.9,11,15.9,11,15.9,11z"/>
<g>
	<g>
		<g>
			<path class="st2" d="M78.2,21.3c-17.7,0-32.1,14.4-32.1,32.1s14.4,32.1,32.1,32.1c17.7,0,32.1-14.4,32.1-32.1
				S95.9,21.3,78.2,21.3z M78.2,80.5c-14.9,0-27.1-12.2-27.1-27.1c0-14.9,12.2-27.1,27.1-27.1c14.9,0,27.1,12.2,27.1,27.1
				C105.3,68.3,93.1,80.5,78.2,80.5z"/>
			<path class="st2" d="M89.1,64.3c-6,6-15.7,6-21.7,0c-1-1-2.6-1-3.6,0c-1,1-1,2.6,0,3.6c4,4,9.2,6,14.4,6c5.2,0,10.4-2,14.4-6
				c1-1,1-2.6,0-3.6C91.6,63.3,90,63.3,89.1,64.3z"/>
			<path class="st2" d="M69.2,50.1c2,0,3.6-1.6,3.6-3.6c0-2-1.6-3.6-3.6-3.6c-2,0-3.6,1.6-3.6,3.6C65.6,48.5,67.2,50.1,69.2,50.1z"
				/>
			<path class="st2" d="M87.2,50.1c2,0,3.6-1.6,3.6-3.6c0-2-1.6-3.6-3.6-3.6c-2,0-3.6,1.6-3.6,3.6C83.6,48.5,85.2,50.1,87.2,50.1z"
				/>
		</g>
	</g>
</g>
</svg>
